<svg width="1152" height="446" viewBox="0 0 1152 446" fill="none" xmlns="http://www.w3.org/2000/svg">
<path fill-rule="evenodd" clip-rule="evenodd" d="M785.013 348.829L785.006 348.829L785.006 382.19L818.338 382.19L818.338 382.182C818.338 363.763 803.418 348.829 785.013 348.829ZM338.742 143.787L338.743 143.797L293.6 151.763L285.641 106.583L285.651 106.582C310.577 102.183 334.347 118.841 338.742 143.787Z" fill="#319FFF"/>
<path fill-rule="evenodd" clip-rule="evenodd" d="M395.379 268.01L395.379 268.003L428.712 268.003L428.712 301.363L428.705 301.363C410.3 301.363 395.379 286.43 395.379 268.01Z" fill="#FFD100"/>
<path fill-rule="evenodd" clip-rule="evenodd" d="M521.5 46.8305L521.514 46.8305L521.514 109.932L458.465 109.932L458.465 109.918C458.465 75.0772 486.688 46.8305 521.5 46.8305Z" fill="#FF4500"/>
<path fill-rule="evenodd" clip-rule="evenodd" d="M66.5702 227.505L7.80988e-05 251.755L24.2292 318.379L90.7993 294.129L66.5702 227.505Z" fill="#319FFF"/>
<path fill-rule="evenodd" clip-rule="evenodd" d="M929.042 224.772L906.163 287.683L969.021 310.58L991.899 247.669L929.042 224.772Z" fill="#FF4500"/>
<path fill-rule="evenodd" clip-rule="evenodd" d="M1123.31 336.812C1139.15 336.812 1152 349.668 1152 365.528C1152 381.388 1139.15 394.243 1123.31 394.243C1107.46 394.243 1094.62 381.386 1094.62 365.528C1094.62 349.668 1107.46 336.812 1123.31 336.812Z" fill="#FFD100"/>
<path fill-rule="evenodd" clip-rule="evenodd" d="M251.609 151.762C262.955 151.762 272.153 160.968 272.153 172.324C272.153 183.68 262.955 192.885 251.609 192.885C240.262 192.885 231.065 183.68 231.065 172.324C231.065 160.968 240.262 151.762 251.609 151.762Z" fill="#FF4500"/>
<path fill-rule="evenodd" clip-rule="evenodd" d="M862.346 98.5878L801.763 70.3141L830.013 9.68002C863.473 25.2966 877.947 65.1015 862.345 98.5878L862.346 98.5878ZM337.297 446C293.18 429.929 270.431 381.105 286.489 336.951L366.371 366.051L337.297 446Z" fill="#FFD100"/>
<path fill-rule="evenodd" clip-rule="evenodd" d="M853.015 40.4409L853.015 40.448L853.015 40.4494L893.428 40.4494L893.428 40.4487L893.43 0.000705719L893.428 -3.05175e-05L893.421 -3.05168e-05C871.105 -2.85659e-05 853.015 18.1058 853.015 40.4402" fill="#319FFF"/>
</svg>
