<svg width="291" height="100" viewBox="0 0 291 100" fill="none" xmlns="http://www.w3.org/2000/svg">
<path d="M31.6014 86.2C22.8838 86.2 15.9097 79.2 15.9097 70.6V27.4C15.9097 19.8 22.012 13.6 29.6399 13.6C37.2679 13.6 43.3702 19.8 43.3702 27.4C43.3702 35 37.2679 41.2 29.6399 41.2H23.3196V55H31.6014C40.319 55 47.2931 62 47.2931 70.6C47.2931 79.2 40.319 86.2 31.6014 86.2V86.2ZM50.3443 47C55.7928 42 59.0619 35.2 59.0619 27.6C59.0619 12.2 45.7675 0 29.6399 0C13.2944 0 0 12.2 0 27.4V70.6C0 86.8 14.1661 100 31.6014 100C49.0366 100 63.2028 86.8 63.2028 70.6C63.2028 60.8 58.1902 52.2 50.3443 47" fill="black"/>
<path d="M233.597 44.2265V57.4971H232.871C221.882 57.4971 214.212 64.65 214.212 79.1618V100H201.668V45.2647H214.212V54.7882C217.632 47.6206 223.956 43.8118 233.597 44.2265ZM180.182 73.7912L192.43 100H177.924L169.341 80.7294C164.144 83.0235 158.406 84.3088 152.368 84.3088C146.212 84.3088 140.365 82.9706 135.088 80.5882L126.465 100H112.309L124.556 73.7912C115.774 66.0588 110.215 54.7471 110.215 42.1529C110.215 18.9118 129.124 0 152.368 0C175.612 0 194.521 18.9118 194.521 42.1529C194.524 54.7471 188.965 66.0588 180.182 73.7912ZM164.8 70.5353L152.159 42.1529L139.615 70.3941C143.503 72.1882 147.818 73.2 152.368 73.2C156.791 73.1971 160.997 72.2412 164.8 70.5353ZM175.135 62.9941C180.088 57.4823 183.112 50.1676 183.112 42.1529C183.112 25.0353 169.321 11.1088 152.368 11.1088C135.406 11.1088 121.609 25.0353 121.609 42.1529C121.609 50.1706 124.635 57.4882 129.597 63L146.459 26.9118H158.277L175.135 62.9941ZM275.627 100H290.141L273.112 70.1265C280.062 64.0529 284.918 55.3765 286.265 45.2647H272.518C272.259 52.8706 265.406 64.8088 253.694 66.8529V26.9147H241.15V100H253.694V79.0088C256.98 78.5588 260.135 77.6735 263.112 76.4088L275.627 100Z" fill="#010101"/>
</svg>
