<svg width="84" height="62" viewBox="0 0 84 62" fill="none" xmlns="http://www.w3.org/2000/svg">
<path d="M50.4827 11.032C57.3949 13.4777 68.4071 13.66 75.2827 10.5975L50.6295 2.09961C43.5071 4.5636 42.0126 7.99374 50.4827 11.032Z" fill="#FF4F5E"/>
<path d="M83.3191 13.9121C71.7998 18.594 55.6235 19.1895 43.8474 14.4863C33.4123 10.2784 33.0387 3.4485 44.0342 0.0183567C42.1126 -0.0970954 40.2445 0.331292 37.202 1.32479C32.0445 3.011 7.64828 11.7246 3.30812 13.2741C1.18308 14.0336 0.118895 14.7385 0.108887 15.4859C0.108887 15.4859 0.108887 18.0517 0.108887 18.8173C0.108887 19.583 3.47826 21.3542 3.47826 21.3542L36.6544 33.4201H45.8396L80.0565 20.5321C82.3216 19.4565 83.3224 18.6241 83.3191 17.8676L83.4926 14.4104C83.4892 14.2402 83.4325 14.0762 83.3191 13.9121Z" fill="#FF4F5E"/>
<path d="M83.4926 14.3655C83.4992 15.1038 82.4284 15.9241 80.2233 16.9692C75.773 19.0808 52.9802 28.0304 47.8139 30.0427C42.6476 32.055 40.2373 32.055 36.3046 30.6625C32.372 29.2699 7.89848 19.9497 3.47826 18.0265C1.27649 17.0695 0.148919 16.2583 0.108887 15.4987V20.606C0.108887 21.3716 1.26648 22.2471 3.47826 23.2102C3.47826 23.2102 32.6326 34.7262 36.3046 35.854C39.9767 36.9819 42.9082 37.2193 47.8139 35.2011C47.8139 35.2011 75.7764 24.1971 80.2266 22.0856C82.4918 21.01 83.4926 20.1776 83.4892 19.4211L83.4926 14.3655Z" fill="#A93641"/>
<path d="M83.4926 27.3059C83.4992 28.0442 82.4284 28.8645 80.2233 29.9097C75.773 32.0212 47.8139 42.9831 47.8139 42.9831C42.6476 44.8767 40.2373 44.9954 36.3046 43.6029C32.372 42.2104 7.89848 32.8901 3.47826 30.967C1.27649 30.0099 0.148919 29.1987 0.108887 28.4392V33.5464C0.108887 34.312 1.26648 35.1875 3.47826 36.1507C3.47826 36.1507 32.6326 47.6666 36.3046 48.7945C39.9767 49.9223 42.9082 49.9817 47.8139 48.1415C47.8139 48.1415 75.7764 37.1376 80.2266 35.026C82.4918 33.9505 83.4926 33.118 83.4892 32.3615L83.4926 27.3059Z" fill="#00ADC7"/>
<path d="M83.4926 39.6528C83.4992 40.3911 82.4284 41.2114 80.2233 42.2566C75.773 44.3681 52.9802 53.3177 47.8139 55.33C42.6476 57.3423 40.2373 57.3423 36.3046 55.9498C32.372 54.5573 7.89848 45.2371 3.47826 43.3139C1.27649 42.3568 0.148919 41.5456 0.108887 40.7861V45.8933C0.108887 46.6589 1.26648 47.5345 3.47826 48.4976C3.47826 48.4976 32.6326 60.0135 36.3046 61.1414C39.9767 62.2692 42.9082 62.5067 47.8139 60.4884C47.8139 60.4884 75.7764 49.4845 80.2266 47.3729C82.4918 46.2974 83.4926 45.4649 83.4892 44.7084L83.4926 39.6528Z" fill="#FF9900"/>
</svg>
