<svg width="86" height="86" viewBox="0 0 86 86" fill="none" xmlns="http://www.w3.org/2000/svg">
<g style="mix-blend-mode:luminosity" clip-path="url(#clip0)">
<path d="M9.15529 51.8962C14.2137 70.6853 33.4526 81.9226 52.1553 77.0065C70.858 72.0903 81.904 52.8957 76.8448 34.1035C71.7855 15.3113 52.5475 4.07708 33.8448 8.99323C15.142 13.9094 4.0969 33.1072 9.15529 51.8962ZM44.0568 42.7221C44.13 43.0036 44.0902 43.3017 43.946 43.5523C43.8018 43.8028 43.5648 43.9858 43.2859 44.0617C43.0056 44.1354 42.7067 44.0942 42.4549 43.9471C42.2031 43.8001 42.019 43.5593 41.9432 43.2777C41.8674 42.996 41.906 42.6967 42.0506 42.4454C42.1952 42.1942 42.4339 42.0117 42.7141 41.938C42.8529 41.8985 42.9985 41.8877 43.1421 41.906C43.2856 41.9244 43.4243 41.9716 43.5496 42.0448C43.675 42.118 43.7846 42.2157 43.8717 42.3321C43.9589 42.4485 44.0219 42.5811 44.0568 42.7221V42.7221Z" fill="#161A1D"/>
<path d="M42.9948 41.8843C43.284 41.8873 43.5606 42.0044 43.7652 42.2104C43.9698 42.4163 44.0858 42.6946 44.0885 42.9854L78.0004 43.0458C77.9934 23.5973 62.3236 7.81772 42.976 7.78324L42.9948 41.8843Z" fill="#44474A"/>
<path d="M41.9111 43.0148L7.99919 42.9544C8.00625 62.4029 23.676 78.1825 43.0236 78.2169L43.0112 44.1224C42.8664 44.1237 42.7227 44.0959 42.5886 44.0406C42.4544 43.9853 42.3326 43.9037 42.2301 43.8006C42.1277 43.6974 42.0467 43.5748 41.9919 43.4399C41.9371 43.3049 41.9097 43.1604 41.9111 43.0148V43.0148Z" fill="#44474A"/>
<path d="M27.7544 42.9729C27.7555 46.0044 28.6508 48.9695 30.3269 51.4932C32.0031 54.0168 34.3849 55.9857 37.1711 57.1508C39.9573 58.3159 43.0229 58.6249 45.98 58.0387C48.9372 57.4526 51.6532 55.9976 53.7846 53.8577C55.916 51.7179 57.3671 48.9893 57.9542 46.017C58.5414 43.0447 58.2384 39.9622 57.0835 37.1594C55.9285 34.3565 53.9736 31.9591 51.4658 30.2704C48.958 28.5817 46.0101 27.6775 42.9947 27.6721C38.9514 27.6653 35.0744 29.2735 32.2164 32.1428C29.3584 35.0122 27.7534 38.9078 27.7544 42.9729V42.9729ZM44.0935 43.002C44.0911 43.2927 43.9752 43.5706 43.7708 43.7758C43.5664 43.981 43.2898 44.0971 43.0007 44.0992C42.7107 44.0986 42.4326 43.9824 42.2275 43.7759C42.0224 43.5694 41.9071 43.2896 41.907 42.9981C41.9069 42.7066 42.022 42.4272 42.2269 42.2214C42.4319 42.0157 42.7099 41.9004 42.9999 41.9009C43.1442 41.8983 43.2877 41.925 43.4216 41.9795C43.5556 42.0339 43.6773 42.115 43.7794 42.2178C43.8815 42.3206 43.962 42.4431 44.016 42.5778C44.07 42.7126 44.0963 42.8568 44.0935 43.002V43.002Z" fill="#AC2728" stroke="#13171A" stroke-width="0.25" stroke-miterlimit="10"/>
<path d="M35.2035 42.9862C35.204 44.5365 35.6618 46.0528 36.519 47.3434C37.3761 48.6339 38.5942 49.6408 40.019 50.2366C41.4438 50.8324 43.0115 50.9904 44.5238 50.6907C46.0361 50.3909 47.425 49.6469 48.515 48.5526C49.6049 47.4583 50.347 46.0629 50.6472 44.5429C50.9475 43.023 50.7925 41.4466 50.2019 40.0133C49.6113 38.5799 48.6116 37.3539 47.3291 36.4904C46.0467 35.6268 44.5391 35.1644 42.9971 35.1616C41.9732 35.1594 40.9592 35.36 40.0132 35.7521C39.0673 36.1442 38.2078 36.72 37.484 37.4467C36.7602 38.1733 36.1863 39.0366 35.795 39.9871C35.4037 40.9376 35.2027 41.9567 35.2035 42.9862ZM44.0852 43.002C44.0827 43.2928 43.9668 43.5706 43.7624 43.7759C43.558 43.9811 43.2815 44.0972 42.9923 44.0992C42.7023 44.0987 42.4242 43.9824 42.2191 43.7759C42.014 43.5694 41.8987 43.2897 41.8986 42.9981C41.8985 42.7066 42.0136 42.4273 42.2186 42.2215C42.4235 42.0157 42.7016 41.9004 42.9915 41.9009C43.1365 41.8972 43.2809 41.9231 43.4157 41.9771C43.5506 42.0311 43.6733 42.112 43.7763 42.2149C43.8793 42.3178 43.9605 42.4407 44.015 42.576C44.0694 42.7113 44.0961 42.8562 44.0932 43.0021L44.0852 43.002Z" fill="#BA2C30"/>
<path d="M82.4421 11.485C82.4421 12.1515 81.8397 12.5465 81.1361 12.5465H74.7365C74.0084 12.5465 73.406 12.1258 73.406 11.485V5.60736C73.406 4.9409 74.0084 4.39649 74.7365 4.39649H81.1377C81.4732 4.38993 81.798 4.51308 82.0422 4.73949C82.2864 4.9659 82.4306 5.27751 82.4438 5.60736L82.4421 11.485Z" fill="#161A1D"/>
<path d="M78.4261 6.12597C78.4261 6.17575 78.2759 6.12597 78.2253 6.12597H77.6473C77.5722 6.12597 77.4465 6.17575 77.4465 6.12597V5.58156C77.4863 5.49351 77.5578 5.42312 77.6473 5.38403H78.2253C78.3004 5.38403 78.4261 5.53178 78.4261 5.58156V6.12597Z" fill="#DDDEDD"/>
<path d="M77.4221 8.29199H76.9221V8.79199V26.5802L65.8306 37.1504L65.4731 37.4911L65.8093 37.8528L66.6126 38.7168L66.9593 39.0897L67.3258 38.7363L78.7732 27.6971L78.9261 27.5497V27.3372V8.79199V8.29199H78.4261H77.4221Z" fill="#DDDEDC" stroke="black"/>
<path d="M69.1384 32.5981L64.1167 37.3886V40.4013H67.0798L72.0754 35.5611L69.1384 32.5981Z" fill="#DDDEDC"/>
<path d="M65.5484 37.241L65.2725 36.968L68.7612 33.6357L69.0126 33.9071L65.5484 37.241Z" fill="#EEEEED"/>
<path d="M77.9364 10.3995C78.9282 10.3995 79.7322 9.60859 79.7322 8.63297C79.7322 7.65735 78.9282 6.86646 77.9364 6.86646C76.9446 6.86646 76.1406 7.65735 76.1406 8.63297C76.1406 9.60859 76.9446 10.3995 77.9364 10.3995Z" fill="#DDDEDD"/>
</g>
<defs>
<clipPath id="clip0">
<rect width="86" height="86" fill="white"/>
</clipPath>
</defs>
</svg>
