<svg width="24" height="24" viewBox="0 0 24 24" fill="none" xmlns="http://www.w3.org/2000/svg">
<path d="M21.6915 0H2.26497C1.04537 0 0 1.00182 0 2.26497V21.735C0 22.9546 1.00182 24 2.26497 24H21.735C22.9546 24 24 22.9982 24 21.735V2.26497C23.9564 1.00182 22.9546 0 21.6915 0ZM8.97278 19.4701H5.96733V8.97278H8.97278V19.4701ZM7.49183 7.49183C6.66425 7.49183 6.01089 6.83848 6.01089 6.01089C6.01089 5.1833 6.66425 4.52995 7.49183 4.52995C8.31942 4.52995 8.97278 5.1833 8.97278 6.01089C8.97278 6.83848 8.31942 7.49183 7.49183 7.49183ZM19.4701 19.4701H16.4646V13.4592C16.4646 12.6316 15.8113 11.9782 14.9837 11.9782C14.1561 11.9782 13.5027 12.6316 13.5027 13.4592V19.4701H10.4973V8.97278H13.5027V10.8457C14.1125 10.0181 15.0708 8.97278 16.1162 8.97278C17.9891 8.97278 19.4701 10.6279 19.4701 12.7187V19.4701Z" fill="#6A737D"/>
</svg>
