<svg width="77" height="19" viewBox="0 0 77 19" fill="none" xmlns="http://www.w3.org/2000/svg">
<path d="M1.84544 17.5381H2.52239C3.38475 17.5381 3.69089 17.0334 3.68657 16.0631C3.68226 15.0929 3.32007 14.5926 2.35854 14.5926H1.84113L1.84544 17.5381ZM1.84544 13.2395H2.42322C2.57697 13.2414 2.72934 13.2099 2.87001 13.1473C3.01068 13.0846 3.13637 12.9922 3.23857 12.8763C3.34078 12.7604 3.41712 12.6236 3.46242 12.4754C3.50773 12.3271 3.52094 12.1708 3.50117 12.0169C3.50117 11.1467 3.16053 10.6638 2.44478 10.6638H1.8325L1.84544 13.2395ZM0.228516 9.32373H2.60863C4.33334 9.32373 5.10515 10.22 5.10947 11.8516C5.10947 12.6739 4.77315 13.5353 3.99702 13.8573C4.81626 14.2271 5.29056 14.8884 5.29056 16.1241C5.29056 17.7034 4.6093 18.8999 2.77678 18.9042H0.237139L0.228516 9.32373Z" fill="#231F20"/>
<path d="M10.9348 13.5919H11.5083C12.3706 13.5919 12.7026 13.2569 12.6983 12.117C12.694 10.9771 12.3706 10.6464 11.4996 10.6464H10.9262L10.9348 13.5919ZM10.9348 18.8738H9.33081V9.302H11.5902C13.3968 9.302 14.3196 10.0808 14.3239 12.1213C14.3239 13.6615 13.7418 14.2967 13.1985 14.5404L14.5696 18.8912H12.9355L11.7842 14.9276C11.5078 14.9572 11.23 14.9717 10.952 14.9711L10.9348 18.8738Z" fill="#231F20"/>
<path d="M20.2415 9.27223L18.6289 9.27563L18.6488 18.8561L20.2614 18.8527L20.2415 9.27223Z" fill="#231F20"/>
<path d="M27.8715 12.4563V11.7124C27.8715 10.9031 27.505 10.5594 27.091 10.5594C26.4399 10.5594 26.2287 10.9075 26.2287 11.621V16.4765C26.2287 17.1944 26.4399 17.5381 27.091 17.5381C27.6774 17.5381 27.8715 17.19 27.8671 16.5679V15.4149H29.4798V16.5157C29.4798 17.8688 28.7036 18.9739 27.0953 18.9739C25.4051 18.9739 24.6247 17.8775 24.6204 16.5244V11.5905C24.6204 10.2374 25.3965 9.13232 27.0824 9.13232C28.695 9.13232 29.4754 10.3201 29.4798 11.7428V12.4476L27.8715 12.4563Z" fill="#231F20"/>
<path d="M33.6536 18.826L33.6321 9.24552L35.2447 9.24117L35.2533 12.7827H35.2792L36.9608 9.23682H38.5691L36.8357 12.8088L38.8105 18.813L37.1764 18.8173L35.8527 14.3621H35.8268L35.2576 15.4237L35.2662 18.8217L33.6536 18.826Z" fill="#231F20"/>
<path d="M44.8728 9.22375L46.1965 9.2194L47.3004 15.3192H47.3262L48.2101 9.21504L49.7193 9.21069L48.0894 18.7955H46.7355L45.5541 12.4695H45.5282L44.4503 18.8042H43.0964L41.2983 9.2281H42.8075L43.8078 15.3279H43.8337L44.8728 9.22375Z" fill="#231F20"/>
<path d="M54.9667 16.42C54.9667 17.1379 55.178 17.4816 55.829 17.4816C56.4801 17.4816 56.6914 17.1335 56.6914 16.42V11.5645C56.6914 10.8466 56.4801 10.5029 55.829 10.5029C55.178 10.5029 54.9667 10.851 54.9667 11.5645V16.42ZM53.3455 11.5253C53.3455 10.1722 54.1216 9.06714 55.8075 9.06714C57.4934 9.06714 58.2781 10.1635 58.2825 11.5166V16.4505C58.2825 17.8036 57.5063 18.9087 55.8204 18.9087C54.1345 18.9087 53.3498 17.8123 53.3455 16.4592V11.5253Z" fill="#231F20"/>
<path d="M64.056 13.4877H64.6294C65.4918 13.4877 65.8238 13.1526 65.8195 12.0127C65.8152 10.8728 65.4918 10.5422 64.6208 10.5422H64.0473L64.056 13.4877ZM64.056 18.7695H62.4434V9.19775H64.6769C66.4835 9.19775 67.4062 9.97655 67.4105 12.0171C67.4105 13.5573 66.8285 14.1925 66.2852 14.4361L67.6563 18.7869H66.0178L64.8925 14.7929C64.616 14.8225 64.3382 14.837 64.0603 14.8364L64.056 18.7695Z" fill="#231F20"/>
<path d="M71.4723 18.7476L71.4551 9.16715L73.0634 9.1628L73.072 12.7087H73.0979L74.7795 9.15845H76.3921L74.6587 12.7305L76.6292 18.7346L74.9951 18.7389L73.6713 14.2837H73.6455L73.0763 15.3453L73.0849 18.7433L71.4723 18.7476Z" fill="#231F20"/>
<path d="M19.403 3.61543C19.1661 3.61543 18.9346 3.5446 18.7375 3.41189C18.5405 3.27918 18.3869 3.09053 18.296 2.86977C18.2052 2.64901 18.1812 2.40604 18.2271 2.17154C18.273 1.93703 18.3867 1.72151 18.5539 1.55218C18.7211 1.38285 18.9343 1.26732 19.1666 1.22016C19.3988 1.173 19.6397 1.19633 19.8588 1.28721C20.0779 1.37809 20.2654 1.53244 20.3976 1.73077C20.5298 1.9291 20.6009 2.16252 20.6017 2.40156C20.6023 2.56076 20.5717 2.71851 20.5117 2.86576C20.4517 3.01301 20.3635 3.14686 20.2522 3.25964C20.1408 3.37241 20.0085 3.46189 19.8628 3.52295C19.717 3.58401 19.5608 3.61544 19.403 3.61543ZM19.403 0.160889C19.1028 0.163118 18.806 0.225586 18.53 0.344657C18.2539 0.463728 18.0041 0.637024 17.795 0.854454C17.5859 1.07189 17.4218 1.32911 17.3122 1.61115C17.2026 1.89319 17.1497 2.19441 17.1566 2.49728C17.1566 3.80252 19.416 6.35645 19.416 6.35645C19.416 6.35645 21.6624 3.77641 21.6624 2.48857C21.6681 2.18534 21.614 1.88398 21.503 1.6021C21.3921 1.32022 21.2267 1.06344 21.0164 0.846768C20.806 0.630092 20.5551 0.457849 20.2781 0.340089C20.0011 0.22233 19.7036 0.161411 19.403 0.160889" fill="#231F20"/>
</svg>
