<svg width="100" height="100" viewBox="0 0 100 100" fill="none" xmlns="http://www.w3.org/2000/svg">
<rect width="100" height="100" rx="10" fill="#B9FBFF"/>
<path d="M50.5 76.4537C44.6935 76.4537 40.0484 71.3383 40.0484 65.0537V33.4845C40.0484 27.9307 44.1129 23.3999 49.1935 23.3999C54.2742 23.3999 58.3387 27.9307 58.3387 33.4845C58.3387 39.0383 54.2742 43.5691 49.1935 43.5691H44.9839V53.6537H50.5C56.3064 53.6537 60.9516 58.7691 60.9516 65.0537C60.9516 71.3383 56.3064 76.4537 50.5 76.4537ZM62.9839 47.8076C66.6129 44.1537 68.7903 39.1845 68.7903 33.6307C68.7903 22.3768 59.9355 13.4614 49.1935 13.4614C38.3064 13.4614 29.4516 22.3768 29.4516 33.4845V65.0537C29.4516 76.8922 38.8871 86.5383 50.5 86.5383C62.1129 86.5383 71.5484 76.8922 71.5484 65.0537C71.5484 57.8922 68.2097 51.6076 62.9839 47.8076Z" fill="black"/>
</svg>
