<svg width="100" height="100" viewBox="0 0 100 100" fill="none" xmlns="http://www.w3.org/2000/svg">
<rect width="100" height="100" rx="20" fill="#B9FBFF"/>
<path d="M50.5 76.4539C44.6936 76.4539 40.0484 71.3385 40.0484 65.0539V33.4846C40.0484 27.9308 44.113 23.4 49.1936 23.4C54.2742 23.4 58.3388 27.9308 58.3388 33.4846C58.3388 39.0385 54.2742 43.5692 49.1936 43.5692H44.9839V53.6539H50.5C56.3065 53.6539 60.9517 58.7692 60.9517 65.0539C60.9517 71.3385 56.3065 76.4539 50.5 76.4539V76.4539ZM62.9839 47.8077C66.6129 44.1539 68.7904 39.1846 68.7904 33.6308C68.7904 22.3769 59.9355 13.4615 49.1936 13.4615C38.3065 13.4615 29.4517 22.3769 29.4517 33.4846V65.0539C29.4517 76.8923 38.8871 86.5385 50.5 86.5385C62.1129 86.5385 71.5484 76.8923 71.5484 65.0539C71.5484 57.8923 68.2097 51.6077 62.9839 47.8077" fill="black"/>
</svg>
