<svg width="74" height="45" viewBox="0 0 74 45" fill="none" xmlns="http://www.w3.org/2000/svg">
<path d="M15.2849 11.28H12.3296V6.94567L12.3953 3.44866H12.3625L9.98188 11.28H7.28934L4.94158 3.44866H4.89233L4.958 6.94567V11.28H2.00277V0.444178H6.73113L8.19233 5.58298L8.73412 7.73373H8.76695L9.30874 5.58298L10.7699 0.444178H15.2849V11.28Z" fill="black"/>
<path d="M22.2902 0.279999C23.9867 0.279999 25.3111 0.772536 26.2633 1.75761C27.2156 2.73174 27.6917 4.0999 27.6917 5.86209C27.6917 7.62428 27.2156 8.99791 26.2633 9.98298C25.3111 10.9571 23.9867 11.4442 22.2902 11.4442C21.1738 11.4442 20.2051 11.2253 19.3842 10.7875C18.5743 10.3497 17.9504 9.70935 17.5126 8.86657C17.0748 8.02378 16.8559 7.02229 16.8559 5.86209C16.8559 4.70189 17.0748 3.7004 17.5126 2.85761C17.9504 2.01482 18.5743 1.37453 19.3842 0.936715C20.2051 0.498904 21.1738 0.279999 22.2902 0.279999ZM22.2902 2.84119C21.6225 2.84119 21.1245 3.09293 20.7962 3.59642C20.4678 4.08895 20.3036 4.84418 20.3036 5.86209C20.3036 6.88 20.4678 7.6407 20.7962 8.14418C21.1245 8.63672 21.6225 8.88298 22.2902 8.88298C22.9578 8.88298 23.4504 8.63672 23.7678 8.14418C24.0962 7.65164 24.2603 6.89094 24.2603 5.86209C24.2603 4.83323 24.0962 4.07254 23.7678 3.58C23.4504 3.08746 22.9578 2.84119 22.2902 2.84119Z" fill="black"/>
<path d="M33.9534 7.5203H32.5908V11.28H29.3072V0.444178H34.8564C36.2355 0.444178 37.2863 0.745173 38.0087 1.34716C38.7311 1.94915 39.0922 2.83025 39.0922 3.99045C39.0922 5.56657 38.4191 6.62278 37.0728 7.1591L39.7161 11.28H36.0549L33.9534 7.5203ZM32.5908 5.23821H34.2161C34.7634 5.23821 35.1519 5.15065 35.3818 4.97552C35.6116 4.78945 35.7266 4.48846 35.7266 4.07254C35.7266 3.65662 35.6062 3.35562 35.3654 3.16955C35.1355 2.98348 34.7524 2.89045 34.2161 2.89045H32.5908V5.23821Z" fill="black"/>
<path d="M45.6168 5.28746H50.6735V11.28H48.4079L48.2929 10.0322C47.7128 10.9735 46.7114 11.4442 45.2885 11.4442C44.3253 11.4442 43.4606 11.2307 42.6944 10.8039C41.9392 10.377 41.3427 9.74766 40.9049 8.91582C40.4671 8.08398 40.2482 7.07701 40.2482 5.89492C40.2482 4.72378 40.4671 3.71681 40.9049 2.87403C41.3536 2.03124 41.9885 1.39094 42.8094 0.953133C43.6412 0.504377 44.6263 0.279999 45.7646 0.279999C47.0561 0.279999 48.0905 0.504377 48.8676 0.953133C49.6447 1.40189 50.2521 2.13522 50.69 3.15313L47.5706 4.3188C47.3626 3.33373 46.7989 2.84119 45.8795 2.84119C44.4238 2.84119 43.6959 3.84816 43.6959 5.86209C43.6959 6.93472 43.882 7.71731 44.2541 8.20985C44.6263 8.70239 45.2009 8.94866 45.978 8.94866C46.5472 8.94866 47.0014 8.82826 47.3407 8.58746C47.68 8.34666 47.8497 7.99094 47.8497 7.5203V7.43821H45.6168V5.28746Z" fill="black"/>
<path d="M58.7295 9.03074H55.4295L54.8056 11.28H51.4563L55.1011 0.444178H59.1235L62.7847 11.28H59.3369L58.7295 9.03074ZM58.1549 6.86358L57.5638 4.71283L57.1041 2.9397H57.0713L56.628 4.69642L56.0205 6.86358H58.1549Z" fill="black"/>
<path d="M73.9422 11.28H70.2646L67.3094 5.91134L66.6198 4.43373H66.587L66.6527 6.58448V11.28H63.7303V0.444178H67.3915L70.3467 5.81283L71.0527 7.29045H71.0691L71.0034 5.1397V0.444178H73.9422V11.28Z" fill="black"/>
<path d="M8.22516 25.4487H4.92516L4.30128 27.6979H0.952026L4.5968 16.8621H8.61919L12.2804 27.6979H8.83262L8.22516 25.4487ZM7.65053 23.2815L7.05949 21.1307L6.59979 19.3576H6.56695L6.12367 21.1143L5.51621 23.2815H7.65053Z" fill="black"/>
<path d="M21.4043 19.374H17.9565V27.6979H14.6072V19.374H11.1266V16.8621H21.4043V19.374Z" fill="black"/>
<path d="M7.81471 44.1158H4.10427L1.00128 33.28H4.61322L6.14009 41.4725L7.84755 33.28H10.8028L12.5923 41.4397L14.0864 33.28H17.567L14.464 44.1158H10.852L9.80128 39.486L9.358 36.777H9.30874L8.86546 39.486L7.81471 44.1158Z" fill="black"/>
<path d="M23.3163 33.1158C25.0128 33.1158 26.3372 33.6084 27.2894 34.5934C28.2417 35.5676 28.7178 36.9357 28.7178 38.6979C28.7178 40.4601 28.2417 41.8337 27.2894 42.8188C26.3372 43.7929 25.0128 44.28 23.3163 44.28C22.1999 44.28 21.2312 44.0611 20.4103 43.6233C19.6004 43.1855 18.9765 42.5452 18.5387 41.7024C18.1009 40.8596 17.882 39.8581 17.882 38.6979C17.882 37.5377 18.1009 36.5362 18.5387 35.6934C18.9765 34.8506 19.6004 34.2103 20.4103 33.7725C21.2312 33.3347 22.1999 33.1158 23.3163 33.1158ZM23.3163 35.677C22.6486 35.677 22.1506 35.9288 21.8223 36.4322C21.4939 36.9248 21.3297 37.68 21.3297 38.6979C21.3297 39.7158 21.4939 40.4765 21.8223 40.98C22.1506 41.4725 22.6486 41.7188 23.3163 41.7188C23.984 41.7188 24.4765 41.4725 24.7939 40.98C25.1223 40.4875 25.2864 39.7268 25.2864 38.6979C25.2864 37.6691 25.1223 36.9084 24.7939 36.4158C24.4765 35.9233 23.984 35.677 23.3163 35.677Z" fill="black"/>
<path d="M34.9796 40.3561H33.6169V44.1158H30.3333V33.28H35.8825C37.2616 33.28 38.3124 33.581 39.0348 34.183C39.7572 34.785 40.1184 35.6661 40.1184 36.8263C40.1184 38.4024 39.4452 39.4586 38.099 39.9949L40.7422 44.1158H37.0811L34.9796 40.3561ZM33.6169 38.074H35.2422C35.7895 38.074 36.1781 37.9865 36.4079 37.8113C36.6378 37.6253 36.7527 37.3243 36.7527 36.9084C36.7527 36.4924 36.6323 36.1914 36.3915 36.0054C36.1617 35.8193 35.7786 35.7263 35.2422 35.7263H33.6169V38.074Z" fill="black"/>
<path d="M46.2462 39.7815L45.1462 41.1934V44.1158H41.797V33.28H45.1462V37.6964L48.4626 33.28H52.091L48.6268 37.6307L52.3537 44.1158H48.5611L46.2462 39.7815Z" fill="black"/>
</svg>
