<svg width="100" height="100" viewBox="0 0 100 100" fill="none" xmlns="http://www.w3.org/2000/svg">
<rect width="100" height="100" rx="10" fill="white"/>
<path d="M57.9131 30.032C64.2133 32.4777 74.2503 32.66 80.517 29.5975L58.0469 21.0996C51.5552 23.5636 50.193 26.9937 57.9131 30.032Z" fill="#FF4F5E"/>
<path d="M87.8418 32.9121C77.3426 37.594 62.5987 38.1895 51.8654 33.4863C42.3543 29.2784 42.0138 22.4485 52.0356 19.0184C50.2842 18.9029 48.5815 19.3313 45.8085 20.3248C41.1077 22.011 18.8717 30.7246 14.9159 32.2741C12.979 33.0336 12.0091 33.7385 12 34.4859C12 34.4859 12 37.0517 12 37.8173C12 38.583 15.071 40.3542 15.071 40.3542L45.3093 52.4201H53.6812L84.8681 39.5321C86.9327 38.4565 87.8449 37.6241 87.8418 36.8676L87.9999 33.4104C87.9969 33.2402 87.9452 33.0762 87.8418 32.9121Z" fill="#FF4F5E"/>
<path d="M87.9999 33.3655C88.006 34.1038 87.03 34.9241 85.0202 35.9692C80.964 38.0808 60.1895 47.0304 55.4807 49.0427C50.7718 51.055 48.575 51.055 44.9906 49.6625C41.4061 48.2699 19.0998 38.9497 15.071 37.0265C13.0642 36.0695 12.0365 35.2583 12 34.4987V39.606C12 40.3716 13.0551 41.2471 15.071 42.2102C15.071 42.2102 41.6436 53.7262 44.9906 54.854C48.3375 55.9819 51.0093 56.2193 55.4807 54.2011C55.4807 54.2011 80.967 43.1971 85.0232 41.0856C87.0878 40.01 87.9999 39.1776 87.9969 38.4211L87.9999 33.3655Z" fill="#A93641"/>
<path d="M87.9999 46.3059C88.006 47.0442 87.03 47.8645 85.0202 48.9097C80.964 51.0212 55.4807 61.9831 55.4807 61.9831C50.7718 63.8767 48.575 63.9954 44.9906 62.6029C41.4061 61.2104 19.0998 51.8901 15.071 49.967C13.0642 49.0099 12.0365 48.1987 12 47.4392V52.5464C12 53.312 13.0551 54.1875 15.071 55.1507C15.071 55.1507 41.6436 66.6666 44.9906 67.7945C48.3375 68.9223 51.0093 68.9817 55.4807 67.1415C55.4807 67.1415 80.967 56.1376 85.0232 54.026C87.0878 52.9505 87.9999 52.118 87.9969 51.3615L87.9999 46.3059Z" fill="#00ADC7"/>
<path d="M87.9999 58.6528C88.006 59.3911 87.03 60.2114 85.0202 61.2566C80.964 63.3681 60.1895 72.3177 55.4807 74.33C50.7718 76.3423 48.575 76.3423 44.9906 74.9498C41.4061 73.5573 19.0998 64.2371 15.071 62.3139C13.0642 61.3568 12.0365 60.5456 12 59.7861V64.8933C12 65.6589 13.0551 66.5345 15.071 67.4976C15.071 67.4976 41.6436 79.0135 44.9906 80.1414C48.3375 81.2692 51.0093 81.5067 55.4807 79.4884C55.4807 79.4884 80.967 68.4845 85.0232 66.3729C87.0878 65.2974 87.9999 64.4649 87.9969 63.7084L87.9999 58.6528Z" fill="#FF9900"/>
</svg>
