<svg width="75" height="75" viewBox="0 0 75 75" fill="none" xmlns="http://www.w3.org/2000/svg">
<path d="M28.4001 8.8001C30.0708 7.4085 32.1324 6.56991 34.3001 6.4001C34.7454 6.37196 35.1917 6.43727 35.6102 6.59181C36.0288 6.74635 36.4104 6.98671 36.7306 7.29747C37.0508 7.60823 37.3024 7.98251 37.4694 8.39628C37.6363 8.81005 37.7149 9.25416 37.7001 9.7001C39.5567 7.78853 42.0441 6.6159 44.7001 6.4001C45.1551 6.38384 45.6084 6.46487 46.0296 6.63779C46.4508 6.8107 46.8303 7.07152 47.1427 7.40281C47.455 7.73411 47.6931 8.12825 47.841 8.5589C47.9888 8.98955 48.0431 9.4468 48.0001 9.9001C47.8828 11.5257 47.4765 13.1173 46.8001 14.6001L39.7001 32.0001C39.0001 34.0001 39.0001 35.2001 41.0001 36.2001L39.3001 40.3001C34.0001 38.5001 33.3001 34.9001 34.7001 31.1001L40.5001 16.6001C41.2177 15.1721 41.7551 13.6606 42.1001 12.1001C42.101 11.9861 42.0775 11.8732 42.0312 11.769C41.9849 11.6648 41.9168 11.5717 41.8316 11.4959C41.7464 11.4201 41.6459 11.3635 41.537 11.3297C41.4281 11.2959 41.3132 11.2858 41.2001 11.3001C40.1001 11.3001 38.1001 12.4001 36.4001 14.4001L29.2001 32.6001H23.8001L30.2001 16.6001C30.9177 15.1721 31.4551 13.6606 31.8001 12.1001C31.801 11.9861 31.7775 11.8732 31.7312 11.769C31.6849 11.6648 31.6168 11.5717 31.5316 11.4959C31.4464 11.4201 31.3459 11.3635 31.237 11.3297C31.1281 11.2959 31.0132 11.2858 30.9001 11.3001C29.9001 11.3001 28.0001 12.4001 26.3001 14.1001L18.9001 32.6001H13.5001L22.1001 11.3001C16.9001 13.0001 12.1001 14.1001 12.1001 16.9001C12.1111 17.1945 12.1839 17.4834 12.3138 17.7479C12.4438 18.0123 12.6279 18.2465 12.8543 18.4351C13.0806 18.6237 13.3441 18.7626 13.6277 18.8427C13.9113 18.9229 14.2085 18.9424 14.5001 18.9001V23.3001C10.4001 23.3001 7.6001 20.7001 7.6001 17.1001C7.6001 10.1001 16.4001 9.0001 24.2001 6.1001L28.4001 8.8001Z" fill="black"/>
<path d="M45.3 39C46.9707 37.6084 49.0323 36.7698 51.2 36.5999C51.6453 36.5718 52.0916 36.6371 52.5101 36.7917C52.9287 36.9462 53.3103 37.1866 53.6305 37.4973C53.9507 37.8081 54.2023 38.1824 54.3693 38.5961C54.5362 39.0099 54.6148 39.454 54.6 39.9C56.4566 37.9884 58.944 36.8158 61.6 36.5999C62.055 36.5837 62.5083 36.6647 62.9295 36.8376C63.3507 37.0106 63.7302 37.2714 64.0426 37.6027C64.3549 37.934 64.593 38.3281 64.7409 38.7588C64.8887 39.1894 64.943 39.6467 64.9 40.0999C64.7827 41.7255 64.3764 43.3171 63.7 44.7999L56.6 62.2999C55.9 64.2999 55.9 65.5 57.9 66.5L56.2 70.5999C50.9 68.7999 50.2 65.2 51.6 61.4L57.4 46.9C58.1254 45.4403 58.663 43.8947 59 42.2999C59.0009 42.1859 58.9774 42.073 58.9311 41.9688C58.8848 41.8646 58.8167 41.7715 58.7315 41.6957C58.6463 41.62 58.5458 41.5633 58.4369 41.5296C58.328 41.4958 58.2131 41.4857 58.1 41.5C57 41.5 55 42.5999 53.3 44.5999L46.1 62.7999H40.7L47.1 46.7999C47.8176 45.372 48.355 43.8604 48.7 42.2999C48.7009 42.1859 48.6774 42.073 48.6311 41.9688C48.5848 41.8646 48.5167 41.7715 48.4315 41.6957C48.3463 41.62 48.2458 41.5633 48.1369 41.5296C48.028 41.4958 47.9131 41.4857 47.8 41.5C46.8 41.5 44.9 42.5999 43.2 44.2999L35.8 62.7999H30.4L39 41.4C33.8 43.1 29 44.2 29 47C29.011 47.2944 29.0838 47.5832 29.2137 47.8477C29.3437 48.1122 29.5278 48.3463 29.7542 48.535C29.9805 48.7236 30.244 48.8625 30.5276 48.9426C30.8112 49.0227 31.1084 49.0422 31.4 49V53.4C27.3 53.4 24.5 50.8 24.5 47.2C24.5 40.2 33.3 39.1 41.1 36.2L45.3 39Z" fill="black"/>
</svg>
