<svg width="200" height="200" viewBox="0 0 200 200" fill="none" xmlns="http://www.w3.org/2000/svg">
<rect width="200" height="200" rx="40" fill="black"/>
<path d="M115.826 60.0638C128.427 64.9553 148.501 65.3199 161.034 59.1949L116.094 42.1991C103.111 47.1271 100.386 53.9874 115.826 60.0638Z" fill="#FF4F5E"/>
<path d="M175.684 65.8242C154.685 75.188 125.197 76.3789 103.731 66.9726C84.7088 58.5568 84.0277 44.897 104.071 38.0367C100.569 37.8058 97.1631 38.6626 91.617 40.6496C82.2155 44.022 37.7435 61.4492 29.8319 64.5482C25.9582 66.0673 24.0182 67.477 24 68.9718C24 68.9718 24 74.1034 24 75.6347C24 77.1659 30.142 80.7085 30.142 80.7085L90.6187 104.84H107.362L169.736 79.0641C173.865 76.9131 175.69 75.2482 175.684 73.7351L176 66.8207C175.994 66.4805 175.89 66.1523 175.684 65.8242Z" fill="#FF4F5E"/>
<path d="M176 66.7306C176.012 68.2072 174.06 69.8478 170.04 71.9381C161.928 76.1612 120.379 94.0603 110.961 98.0849C101.544 102.11 97.15 102.11 89.9812 99.3245C82.8123 96.5395 38.1996 77.8991 30.142 74.0527C26.1284 72.1386 24.073 70.5162 24 68.9971V79.2116C24 80.7428 26.1102 82.4938 30.142 84.4201C30.142 84.4201 83.2873 107.452 89.9812 109.708C96.675 111.963 102.019 112.438 110.961 108.402C110.961 108.402 161.934 86.3939 170.046 82.1708C174.176 80.0197 176 78.3548 175.994 76.8418L176 66.7306Z" fill="#A93641"/>
<path d="M176 92.6118C176.012 94.0884 174.06 95.729 170.04 97.8193C161.928 102.042 110.961 123.966 110.961 123.966C101.544 127.753 97.15 127.991 89.9812 125.206C82.8123 122.421 38.1996 103.78 30.142 99.9339C26.1284 98.0198 24.073 96.3974 24 94.8783V105.093C24 106.624 26.1102 108.375 30.142 110.301C30.142 110.301 83.2873 133.333 89.9812 135.589C96.675 137.845 102.019 137.963 110.961 134.283C110.961 134.283 161.934 112.275 170.046 108.052C174.176 105.901 176 104.236 175.994 102.723L176 92.6118Z" fill="#00ADC7"/>
<path d="M176 117.306C176.012 118.782 174.06 120.423 170.04 122.513C161.928 126.736 120.379 144.636 110.961 148.66C101.544 152.685 97.15 152.685 89.9812 149.9C82.8123 147.115 38.1996 128.474 30.142 124.628C26.1284 122.714 24.073 121.091 24 119.572V129.787C24 131.318 26.1102 133.069 30.142 134.995C30.142 134.995 83.2873 158.027 89.9812 160.283C96.675 162.539 102.019 163.014 110.961 158.977C110.961 158.977 161.934 136.969 170.046 132.746C174.176 130.595 176 128.93 175.994 127.417L176 117.306Z" fill="#FF9900"/>
</svg>
